<svg xmlns="http://www.w3.org/2000/svg" viewBox="0 0 100 100" role="img" aria-label="GUESAN 로고">
  <defs>
    <clipPath id="tri">
      <path d="M44.01,14.39 Q50,4 55.99,14.39 L83.81,62.61 Q89.8,73 77.8,73 L22.2,73 Q10.2,73 16.19,62.61 Z" />
    </clipPath>
  </defs>
  <g clip-path="url(#tri)">
    <polygon points="50,50 30.1,38.5 50,4 69.95,38.5" fill="#E8000D" />
    <polygon points="50,50 30.1,38.5 10.2,73 50,73" fill="#FFE000" />
    <polygon points="50,50 50,73 89.8,73 69.95,38.5" fill="#1A2EE8" />
  </g>
  <g fill="none" stroke="#000" stroke-width="3.2" stroke-linecap="round" stroke-linejoin="round">
    <line x1="50" y1="50" x2="30.1" y2="38.5" />
    <line x1="50" y1="50" x2="69.95" y2="38.5" />
    <line x1="50" y1="50" x2="50" y2="73" />
    <path d="M44.01,14.39 Q50,4 55.99,14.39 L83.81,62.61 Q89.8,73 77.8,73 L22.2,73 Q10.2,73 16.19,62.61 Z" />
  </g>
  <circle cx="50" cy="50" r="18" fill="#fff" stroke="#000" stroke-width="3.2" />
</svg>
